# xmcd
#
# Track frame offsets: 
#        150
#        20089
#        31088
#        50195
#        67444
#        87061
#        102528
#        117804
#        136424
#        156291
#        188332
#        207555
#        225084
#        242806
#        262268
#        279266
#        300329
#
# Disc length: 4260 seconds
#
# Revision: 0
# Processed by: cddbd v1.5.2PL0 Copyright (c) Steve Scherf et al.
# Submitted via: ExactAudioCopy v0.95b2
#
DISCID=ed10a211
DTITLE=Desireless - Best Of
DYEAR=1900
DGENRE=Pop
TTITLE0=Voyage, Voyage
TTITLE1=Les Oiseaux Arrivent
TTITLE2=John
TTITLE3=Qui Peut Savoir
TTITLE4=L'amur, L'amur
TTITLE5=Bossa Fragile
TTITLE6=Le Retour
TTITLE7=I Love You
TTITLE8=Il Dort
TTITLE9=Voyage, Voyage (pwl - britmix)
TTITLE10=Ou Aller
TTITLE11=Ouf
TTITLE12=Les Escaliers Du Bal
TTITLE13=Presque Sensuelle
TTITLE14=S'il Pleut
TTITLE15=J'ai Froid
TTITLE16=Je Crois En Toi
EXTD=
EXTT0=
EXTT1=
EXTT2=
EXTT3=
EXTT4=
EXTT5=
EXTT6=
EXTT7=
EXTT8=
EXTT9=
EXTT10=
EXTT11=
EXTT12=
EXTT13=
EXTT14=
EXTT15=
EXTT16=
PLAYORDER=
